<svg width="91" height="28" viewBox="0 0 91 28" fill="none" xmlns="http://www.w3.org/2000/svg">
<path d="M18.5239 0L9.26233 9.26238H18.5239V27.7871L27.7863 18.547V0H18.5239Z" fill="#EA5616"/>
<path d="M9.26237 27.7863L18.5248 18.5248H9.26237V0L0 9.2401V27.7863H9.26237Z" fill="white"/>
<path d="M37.0487 23.1551H41.9109V8.79862H49.3202V23.1551H54.1824V4.63113H37.0487V23.1551ZM84.283 11.5717H80.1287V8.79862H89.3796V4.63113H75.2657V23.1551H84.514C88.222 23.1551 91 21.2961 91 17.363C91 13.4298 88.222 11.5717 84.283 11.5717ZM83.8193 19.2194H80.1287V15.5181H83.8193C84.9662 15.5181 86.1296 15.9702 86.1296 17.363C86.1296 18.7557 84.9678 19.2194 83.8193 19.2194ZM66.0858 19.2079C62.84 19.2079 61.0157 16.8283 61.0157 13.8869C61.0157 11.5255 62.3441 8.56182 65.9934 8.56182C68.2715 8.56182 69.7409 9.95373 70.2624 10.6022L73.2187 7.64598C72.3072 6.55418 71.1668 5.67614 69.8783 5.07401C68.5898 4.47189 67.1847 4.16042 65.7624 4.16166C60.3911 4.16166 56.1527 8.1369 56.1527 13.8869C56.1527 19.2582 60.3911 23.6121 65.7624 23.6121C67.2888 23.6135 68.7939 23.255 70.1558 22.5657C71.5177 21.8765 72.6979 20.8759 73.6007 19.6452L70.6238 16.6674C69.6824 18.1419 68.1485 19.2054 66.0858 19.2054" fill="white"/>
</svg>
