<svg width="17" height="19" viewBox="0 0 17 19" fill="none" xmlns="http://www.w3.org/2000/svg">
<g opacity="0.2">
<path fill-rule="evenodd" clip-rule="evenodd" d="M2.10736 9.26667C2.10736 8.41413 2.73676 7.72222 3.51227 7.72222C4.28778 7.72222 4.91717 8.41413 4.91717 9.26667C4.91717 10.1192 4.28778 10.8111 3.51227 10.8111C2.73676 10.8111 2.10736 10.1192 2.10736 9.26667ZM8.42944 7.72222C7.65393 7.72222 7.02454 8.41413 7.02454 9.26667C7.02454 10.1192 7.65393 10.8111 8.42944 10.8111C9.20495 10.8111 9.83435 10.1192 9.83435 9.26667C9.83435 8.41413 9.20495 7.72222 8.42944 7.72222ZM13.3466 7.72222C12.5711 7.72222 11.9417 8.41413 11.9417 9.26667C11.9417 10.1192 12.5711 10.8111 13.3466 10.8111C14.1221 10.8111 14.7515 10.1192 14.7515 9.26667C14.7515 8.41413 14.1221 7.72222 13.3466 7.72222Z" fill="black"/>
</g>
</svg>
