<svg width="212" height="52" viewBox="0 0 212 52" fill="none" xmlns="http://www.w3.org/2000/svg">
<mask id="mask0_3388_35304" style="mask-type:alpha" maskUnits="userSpaceOnUse" x="0" y="0" width="212" height="52">
<path d="M75.3262 16.7715L70.7664 41.6642H64.8367L66.6566 31.7768H58.497L56.6871 41.6642H50.7573L55.3171 16.7715H61.2468L59.4969 26.3004H67.6566L69.3965 16.7715H75.3262Z" fill="url(#paint0_linear_3388_35304)"/>
<path d="M96.3263 33.4902C95.3963 38.5783 91.3963 41.6749 85.6963 41.6749H75.9463L80.5063 16.7822H86.4363L85.0063 24.5985H88.8063C89.9217 24.5878 91.0258 24.8226 92.0395 25.2863C93.0531 25.7499 93.9514 26.4309 94.6699 27.2805C95.3884 28.1301 95.9095 29.1273 96.1959 30.2008C96.4822 31.2743 96.5268 32.3976 96.3263 33.4902ZM87.8463 29.9355H84.0063L82.8163 36.3379H86.6363C87.5426 36.3404 88.4195 36.0177 89.1064 35.4289C89.7932 34.8401 90.2441 34.0246 90.3763 33.1318C90.4859 32.7497 90.5028 32.3471 90.4257 31.9573C90.3485 31.5674 90.1794 31.2013 89.9324 30.8893C89.6854 30.5772 89.3674 30.328 89.0047 30.1622C88.6421 29.9963 88.245 29.9187 87.8463 29.9355Z" fill="url(#paint1_linear_3388_35304)"/>
<path d="M136.704 29.5768C135.994 33.1673 134.04 36.3956 131.184 38.6977C128.327 40.9999 124.749 42.2298 121.074 42.1725C114.515 42.1725 109.955 37.6222 109.805 31.6081H106.325L104.475 41.6747H98.5454L103.105 16.782H109.005L107.295 26.1416H110.775C111.922 23.1994 113.947 20.6776 116.577 18.9153C119.206 17.153 122.315 16.2348 125.484 16.2841C132.894 16.2742 138.004 22.2484 136.704 29.5768ZM124.634 21.8203C122.52 21.8207 120.473 22.5624 118.853 23.9151C117.233 25.2679 116.143 27.1454 115.775 29.2184C114.955 33.6692 117.475 36.6264 121.704 36.6264C123.845 36.6304 125.921 35.8938 127.577 34.5426C129.233 33.1914 130.367 31.3095 130.784 29.2184C131.594 24.7775 128.854 21.8203 124.634 21.8203Z" fill="url(#paint2_linear_3388_35304)"/>
<path d="M157.673 22.2479H151.003L147.453 41.6742H141.523L145.073 22.2479H138.403L139.403 16.7715H158.673L157.673 22.2479Z" fill="url(#paint3_linear_3388_35304)"/>
<path d="M158.672 28.8799C160.002 21.5515 166.232 16.2842 174.342 16.2842C181.721 16.2842 186.871 22.2584 185.531 29.5869C184.191 36.9153 178.001 42.1726 169.902 42.1726C162.372 42.1726 157.302 36.1984 158.672 28.8799ZM179.601 29.2284C180.421 24.7875 177.681 21.8303 173.452 21.8303C171.339 21.8331 169.295 22.5758 167.677 23.9284C166.059 25.2809 164.971 27.1571 164.602 29.2284C163.782 33.6792 166.302 36.6365 170.532 36.6365C172.674 36.6414 174.75 35.9038 176.405 34.5502C178.06 33.1965 179.19 31.3114 179.601 29.2184V29.2284Z" fill="url(#paint4_linear_3388_35304)"/>
<path d="M212 16.7715L207.44 41.6642H201.511L203.33 31.7768H195.171L193.361 41.6642H187.431L191.991 16.7715H197.921L196.171 26.3004H204.33L206 16.7715H212Z" fill="url(#paint5_linear_3388_35304)"/>
<path d="M39.0082 0.00416845C33.5654 -0.0361817 28.1244 0.216433 22.709 0.760907C15.2393 1.48777 7.08969 5.04246 2.87988 11.0765L13.5894 16.055C22.219 13.277 33.8485 13.1575 36.8683 16.3736C36.8683 16.3736 43.008 11.0167 39.0082 0.00416845Z" fill="url(#paint6_linear_3388_35304)"/>
<path d="M28.3697 40.2709C26.3268 40.9189 24.1262 40.8769 22.1097 40.1514C21.9487 40.0976 21.7782 40.0777 21.609 40.0928C21.4398 40.1079 21.2756 40.1577 21.1267 40.2391C20.9779 40.3205 20.8475 40.4317 20.7439 40.5658C20.6404 40.6998 20.5658 40.8538 20.5249 41.0179C20.484 41.1821 20.4778 41.3529 20.5065 41.5196C20.5352 41.6863 20.5982 41.8453 20.6917 41.9865C20.7852 42.1277 20.907 42.2481 21.0495 42.3402C21.192 42.4322 21.3521 42.4938 21.5197 42.5212C23.9572 43.362 26.6028 43.3934 29.0597 42.6108C29.3442 42.4979 29.5762 42.2833 29.7103 42.0091C29.8443 41.7349 29.8708 41.4207 29.7845 41.1281C29.6982 40.8355 29.5053 40.5854 29.2437 40.4269C28.982 40.2684 28.6704 40.2127 28.3697 40.2709Z" fill="url(#paint7_linear_3388_35304)"/>
<path d="M17.751 47.659L16.7534 51.248L19.4809 51.9997L20.4785 48.4106L17.751 47.659Z" fill="url(#paint8_linear_3388_35304)"/>
<path d="M10.1896 51.064C7.88117 49.8381 5.70914 48.3729 3.70961 46.6929L3.09961 46.1652L5.00961 35.8496L7.78961 36.3574L6.16961 45.1197C7.82965 46.4472 9.61073 47.6173 11.4896 48.6146L10.1896 51.064Z" fill="url(#paint9_linear_3388_35304)"/>
<path d="M30.2583 5.97852L29.0083 8.50762C32.7083 10.3298 33.9383 14.6412 34.2583 18.4647L37.1183 18.5941C36.7783 13.9442 35.2683 8.44787 30.2583 5.97852Z" fill="url(#paint10_linear_3388_35304)"/>
<path d="M27.7789 47.3897C26.219 48.4651 24.3591 48.5448 22.1192 47.6586C19.62 46.7109 17.3742 45.2016 15.5566 43.2484C13.739 41.2951 12.3986 38.9505 11.6397 36.3971C10.4719 36.088 9.3541 35.6153 8.31982 34.9932C9.03753 38.478 10.5994 41.7355 12.8696 44.4823C15.0717 47.0723 17.8958 49.0658 21.0792 50.2773C21.6034 50.489 22.1412 50.6653 22.6892 50.805C23.816 51.1228 24.9992 51.1903 26.1552 51.0027C27.3111 50.8152 28.4116 50.3772 29.3789 49.7197C32.9887 47.2603 34.8486 41.754 35.8086 36.5863H32.9287C32.0087 41.1267 30.4488 45.5676 27.7789 47.3897Z" fill="url(#paint11_linear_3388_35304)"/>
<path d="M42.3784 33.0814L43.4484 23.433C43.5505 22.844 43.5276 22.2402 43.3812 21.6606C43.2348 21.081 42.9682 20.5383 42.5984 20.0675C42.2762 19.6572 41.8693 19.3205 41.4053 19.08C40.9413 18.8395 40.4309 18.7009 39.9086 18.6735L37.1087 18.544L34.2488 18.4146L23.8393 17.9267L20.7094 17.7275C19.6098 17.7468 18.559 18.1829 17.7711 18.947C16.9833 19.7112 16.5178 20.7457 16.4696 21.8398L15.6497 32.1454C15.5982 32.7181 15.6648 33.2953 15.8454 33.8415C16.0259 34.3877 16.3166 34.8914 16.6996 35.3217C17.0337 35.6922 17.4401 35.9909 17.8939 36.1998C18.3478 36.4086 18.8397 36.5232 19.3395 36.5365H23.8393H32.9289H35.8087H38.3886C39.3545 36.5162 40.2827 36.1594 41.0116 35.5281C41.7406 34.8968 42.2243 34.031 42.3784 33.0814ZM38.6186 33.858H36.2487H33.3889L22.0094 33.7385C21.8957 33.7344 21.7841 33.7076 21.681 33.6597C21.578 33.6118 21.4856 33.5438 21.4094 33.4597C21.288 33.312 21.1972 33.1418 21.1423 32.9589C21.0873 32.7761 21.0694 32.5842 21.0894 32.3943L21.9094 22.0887C21.9082 21.7557 22.0332 21.4344 22.2593 21.189C22.4853 20.9436 22.796 20.792 23.1293 20.7645L34.3488 21.2723L37.1887 21.4017L39.9586 21.5311H40.1085C40.296 21.5833 40.4611 21.6953 40.5785 21.8498C40.7042 22.0155 40.7924 22.2062 40.8373 22.409C40.8822 22.6118 40.8826 22.8218 40.8385 23.0247L39.7786 32.6632C39.7549 32.9656 39.6261 33.2503 39.4144 33.4683C39.2027 33.6864 38.9213 33.8242 38.6186 33.858Z" fill="url(#paint12_linear_3388_35304)"/>
<path d="M27.2687 30.4928L24.5887 27.8841C24.3617 27.613 24.2447 27.2672 24.2607 26.9147C24.2767 26.5621 24.4246 26.2283 24.6752 25.9787C24.9258 25.7292 25.2611 25.582 25.6152 25.566C25.9693 25.5501 26.3165 25.6666 26.5887 25.8926L27.3987 26.6892L29.3087 25.0264L31.0087 26.6992L32.9187 25.0264L34.6687 26.7489L35.5887 25.9424C35.7262 25.8061 35.8902 25.6993 36.0707 25.6286C36.2513 25.5579 36.4444 25.5247 36.6383 25.5312C36.8322 25.5376 37.0227 25.5836 37.198 25.6662C37.3734 25.7488 37.5299 25.8663 37.6578 26.0114C37.7858 26.1566 37.8826 26.3263 37.9421 26.5102C38.0017 26.694 38.0228 26.888 38.0041 27.0803C37.9855 27.2725 37.9275 27.4589 37.8337 27.628C37.7399 27.7971 37.6123 27.9452 37.4587 28.0633L34.5587 30.5924L32.8387 28.8798L30.9287 30.5426L29.1787 28.8798L27.2687 30.4928Z" fill="url(#paint13_linear_3388_35304)"/>
<path d="M9.00973 35.3912C9.00973 35.3912 8.73973 35.2518 8.41973 35.0526C8.25054 34.9593 8.08693 34.8562 7.92973 34.7439L7.48973 34.4353C6.51767 33.7703 5.764 32.8347 5.32292 31.7456C4.88184 30.6565 4.7729 29.4621 5.00973 28.3117C5.53973 25.3843 9.89973 27.067 9.89973 27.067L10.9797 31.5776L12.8297 30.2732C12.8297 30.2732 12.9097 23.5223 13.1097 18.9221L1.46973 13.5254C0.0390687 16.6154 -0.360432 20.0803 0.329727 23.4128C2.52973 35.1323 -0.760273 34.8535 11.0097 39.9117C10.5514 38.3217 9.87861 36.801 9.00973 35.3912Z" fill="url(#paint14_linear_3388_35304)"/>
</mask>
<g mask="url(#mask0_3388_35304)">
<path d="M212 0H0V52H212V0Z" fill="url(#paint15_linear_3388_35304)"/>
</g>
<defs>
<linearGradient id="paint0_linear_3388_35304" x1="-5.38011" y1="34.8635" x2="213.497" y2="16.6581" gradientUnits="userSpaceOnUse">
<stop offset="0.28" stop-color="#30353B"/>
<stop offset="0.45" stop-color="#FF531D"/>
<stop offset="0.69" stop-color="#08438E"/>
</linearGradient>
<linearGradient id="paint1_linear_3388_35304" x1="-31.6957" y1="930.096" x2="4466.33" y2="623.078" gradientUnits="userSpaceOnUse">
<stop offset="0.28" stop-color="#30353B"/>
<stop offset="0.45" stop-color="#FF531D"/>
<stop offset="0.69" stop-color="#08438E"/>
</linearGradient>
<linearGradient id="paint2_linear_3388_35304" x1="-94.4078" y1="1034.36" x2="8234.5" y2="12.3088" gradientUnits="userSpaceOnUse">
<stop offset="0.28" stop-color="#30353B"/>
<stop offset="0.45" stop-color="#FF531D"/>
<stop offset="0.69" stop-color="#08438E"/>
</linearGradient>
<linearGradient id="paint3_linear_3388_35304" x1="40.2965" y1="1053.47" x2="4487.43" y2="753.485" gradientUnits="userSpaceOnUse">
<stop offset="0.28" stop-color="#30353B"/>
<stop offset="0.45" stop-color="#FF531D"/>
<stop offset="0.69" stop-color="#08438E"/>
</linearGradient>
<linearGradient id="paint4_linear_3388_35304" x1="31.8007" y1="1155.12" x2="6001.82" y2="633.487" gradientUnits="userSpaceOnUse">
<stop offset="0.28" stop-color="#30353B"/>
<stop offset="0.45" stop-color="#FF531D"/>
<stop offset="0.69" stop-color="#08438E"/>
</linearGradient>
<linearGradient id="paint5_linear_3388_35304" x1="77.8539" y1="1168.06" x2="5456.93" y2="728.343" gradientUnits="userSpaceOnUse">
<stop offset="0.28" stop-color="#30353B"/>
<stop offset="0.45" stop-color="#FF531D"/>
<stop offset="0.69" stop-color="#08438E"/>
</linearGradient>
<linearGradient id="paint6_linear_3388_35304" x1="-271.486" y1="191.08" x2="7702.52" y2="-1320.82" gradientUnits="userSpaceOnUse">
<stop offset="0.28" stop-color="#30353B"/>
<stop offset="0.45" stop-color="#FF531D"/>
<stop offset="0.69" stop-color="#08438E"/>
</linearGradient>
<linearGradient id="paint7_linear_3388_35304" x1="-22.781" y1="176.473" x2="1915.2" y2="-309.339" gradientUnits="userSpaceOnUse">
<stop offset="0.28" stop-color="#30353B"/>
<stop offset="0.45" stop-color="#FF531D"/>
<stop offset="0.69" stop-color="#08438E"/>
</linearGradient>
<linearGradient id="paint8_linear_3388_35304" x1="1.82071" y1="194.693" x2="816.281" y2="105.161" gradientUnits="userSpaceOnUse">
<stop offset="0.28" stop-color="#30353B"/>
<stop offset="0.45" stop-color="#FF531D"/>
<stop offset="0.69" stop-color="#08438E"/>
</linearGradient>
<linearGradient id="paint9_linear_3388_35304" x1="-35.4105" y1="714.87" x2="1809.84" y2="630.542" gradientUnits="userSpaceOnUse">
<stop offset="0.28" stop-color="#30353B"/>
<stop offset="0.45" stop-color="#FF531D"/>
<stop offset="0.69" stop-color="#08438E"/>
</linearGradient>
<linearGradient id="paint10_linear_3388_35304" x1="-27.6806" y1="203.792" x2="1754.72" y2="108.891" gradientUnits="userSpaceOnUse">
<stop offset="0.28" stop-color="#30353B"/>
<stop offset="0.45" stop-color="#FF531D"/>
<stop offset="0.69" stop-color="#08438E"/>
</linearGradient>
<linearGradient id="paint11_linear_3388_35304" x1="-117.029" y1="759.927" x2="5822.67" y2="-79.3565" gradientUnits="userSpaceOnUse">
<stop offset="0.28" stop-color="#30353B"/>
<stop offset="0.45" stop-color="#FF531D"/>
<stop offset="0.69" stop-color="#08438E"/>
</linearGradient>
<linearGradient id="paint12_linear_3388_35304" x1="-145.782" y1="585.758" x2="5907.35" y2="-157.728" gradientUnits="userSpaceOnUse">
<stop offset="0.28" stop-color="#30353B"/>
<stop offset="0.45" stop-color="#FF531D"/>
<stop offset="0.69" stop-color="#08438E"/>
</linearGradient>
<linearGradient id="paint13_linear_3388_35304" x1="-54.399" y1="197.684" x2="2854.64" y2="-397.574" gradientUnits="userSpaceOnUse">
<stop offset="0.28" stop-color="#30353B"/>
<stop offset="0.45" stop-color="#FF531D"/>
<stop offset="0.69" stop-color="#08438E"/>
</linearGradient>
<linearGradient id="paint14_linear_3388_35304" x1="-78.3962" y1="748.12" x2="2805.99" y2="629.422" gradientUnits="userSpaceOnUse">
<stop offset="0.28" stop-color="#30353B"/>
<stop offset="0.45" stop-color="#FF531D"/>
<stop offset="0.69" stop-color="#08438E"/>
</linearGradient>
<linearGradient id="paint15_linear_3388_35304" x1="-1.42926" y1="34.7507" x2="213.411" y2="16.9129" gradientUnits="userSpaceOnUse">
<stop offset="0.28" stop-color="#30353B"/>
<stop offset="0.45" stop-color="#FF531D"/>
<stop offset="0.69" stop-color="#08438E"/>
</linearGradient>
</defs>
</svg>
